<?xml version="1.0" standalone="no"?>
<!DOCTYPE svg PUBLIC "-//W3C//DTD SVG 20010904//EN"
 "http://www.w3.org/TR/2001/REC-SVG-20010904/DTD/svg10.dtd">
<svg version="1.0" xmlns="http://www.w3.org/2000/svg"
 width="1000.000000pt" height="1000.000000pt" viewBox="0 0 1000.000000 1000.000000"
 preserveAspectRatio="xMidYMid meet">
<metadata>
Created by potrace 1.14, written by Peter Selinger 2001-2017
</metadata>
<g transform="translate(0.000000,1000.000000) scale(0.100000,-0.100000)"
fill="#000000" stroke="none">
<path d="M0 5000 l0 -5000 5000 0 5000 0 0 5000 0 5000 -5000 0 -5000 0 0
-5000z m7225 2441 l2200 -747 3 -2227 2 -2227 -2177 0 -2178 1 55 35 c99 65
273 143 441 198 298 98 528 136 837 136 247 0 427 -22 652 -82 85 -22 165 -43
177 -45 16 -4 31 4 53 25 l30 30 0 1448 c0 1420 0 1448 -20 1488 l-19 41 -193
51 -193 51 -5 251 c-6 279 -6 282 -78 302 -37 10 -222 -1 -357 -20 -104 -16
-327 -76 -430 -117 -363 -144 -738 -420 -973 -716 -34 -43 -65 -76 -69 -75 -4
2 -35 37 -67 78 -74 93 -255 274 -361 359 -370 298 -823 474 -1250 487 l-160
5 -30 -27 -30 -27 -3 -249 c-4 -289 15 -251 -152 -294 -129 -33 -177 -53 -222
-93 -50 -43 -64 -81 -47 -123 12 -27 14 -276 14 -1429 0 -1354 1 -1398 19
-1418 31 -34 51 -34 163 3 255 82 590 120 858 96 301 -26 578 -87 805 -175
111 -43 288 -134 340 -175 25 -19 8 -20 -2133 -20 l-2157 0 2 2227 3 2226
2200 748 c1210 411 2211 747 2225 747 14 1 1015 -336 2225 -747z m-4132 -4179
c19 -29 70 -42 209 -52 183 -14 293 -33 432 -75 254 -77 510 -219 761 -420 52
-42 97 -80 100 -85 3 -4 -28 5 -69 21 -174 67 -430 128 -651 154 -303 35 -708
6 -967 -70 l-48 -14 0 1309 0 1308 43 16 c23 9 71 26 107 39 l65 24 5 -1071
c3 -589 9 -1077 13 -1084z m4030 2078 c4 0 7 -590 7 -1311 0 -1212 -1 -1311
-16 -1305 -9 4 -71 17 -138 31 -495 98 -1000 66 -1471 -95 -77 -26 -158 -55
-180 -64 -39 -16 -38 -14 35 55 164 158 377 312 553 400 249 126 458 180 798
208 70 6 133 13 141 16 37 15 38 32 38 1095 l0 1038 113 -34 c61 -19 115 -34
120 -34z"/>
</g>
</svg>
